<svg xmlns="http://www.w3.org/2000/svg" xmlns:xlink="http://www.w3.org/1999/xlink" viewBox="0 0 50 50" fill="#F9744E">
  <path d="M38.035156 13.988281C37.628906 13.980469 37.257813 14.222656 37.09375 14.59375C36.933594 14.96875 37.015625 15.402344 37.300781 15.691406L45.277344 24L2.023438 24C1.664063 23.996094 1.328125 24.183594 1.148438 24.496094C0.964844 24.808594 0.964844 25.191406 1.148438 25.503906C1.328125 25.816406 1.664063 26.003906 2.023438 26L45.277344 26L37.300781 34.308594C36.917969 34.707031 36.933594 35.339844 37.332031 35.722656C37.730469 36.105469 38.363281 36.09375 38.746094 35.691406L49.011719 25L38.746094 14.308594C38.5625 14.109375 38.304688 13.996094 38.035156 13.988281Z" fill="#F9744E" />
</svg>