<svg xmlns="http://www.w3.org/2000/svg" viewBox="0 0 139.86 90.39"><defs><style>.cls-1{fill:#e4e3e3;}.cls-2{fill:#1b504c;}.cls-3{fill:#d8cda9;}.cls-4{fill:#f8f6f2;}.cls-5{fill:#684238;}</style></defs><g id="Layer_2" data-name="Layer 2"><g id="Color"><path class="cls-1" d="M50,73.93a5.27,5.27,0,0,1-5.26-5.26V62.51H86.49v6.16a5.27,5.27,0,0,1-5.26,5.26Z"/><path class="cls-2" d="M85.05,64v4.72a3.82,3.82,0,0,1-3.82,3.82H50a3.82,3.82,0,0,1-3.82-3.82V64H85.05m2.87-2.88H43.33v7.6A6.7,6.7,0,0,0,50,75.36H81.23a6.7,6.7,0,0,0,6.69-6.69v-7.6Z"/><path class="cls-2" d="M110.75,52.6a12.78,12.78,0,0,1-11.61-6.92l7.14-3.37a5,5,0,0,0,4.72,2.4c9-.39,17-8.89,19.9-16.7,1.58-4.18,1.38-9.32-.49-12.5a6.51,6.51,0,0,0-4.93-3.31c-5.27-.8-11.61,3.86-15.15,8.86l-6.44-4.55c4.94-7,13.89-13.45,22.76-12.12a14.34,14.34,0,0,1,10.56,7.12c3.09,5.26,3.51,12.82,1.08,19.28-3.93,10.43-14.45,21.27-26.95,21.8Z"/><path class="cls-1" d="M54.36,67.87a26.87,26.87,0,0,1-17.46-6.3C10.64,39.15,13.56,2.88,13.6,2.51l.1-1.19H117.55l.1,1.19c0,.37,3,36.64-23.3,59.06a26.87,26.87,0,0,1-17.46,6.3Z"/><path class="cls-2" d="M116.34,2.63s3.2,35.7-22.84,57.94a25.58,25.58,0,0,1-16.61,6H54.36a25.58,25.58,0,0,1-16.61-6C11.71,38.33,14.91,2.63,14.91,2.63H116.34m0-2.63H12.5l-.21,2.4A79,79,0,0,0,14,23.8c3.33,15.89,11,29.29,22,38.77a28.2,28.2,0,0,0,18.32,6.62H76.89a28.2,28.2,0,0,0,18.32-6.62c11.09-9.48,18.72-22.88,22.05-38.77A79,79,0,0,0,119,2.4L118.75,0Z"/><path class="cls-3" d="M110,2.63s2.8,33.42-20,52.87a22.31,22.31,0,0,1-14.51,5.23H55.77A22.31,22.31,0,0,1,41.26,55.5c-22.77-19.45-20-52.87-20-52.87Z"/><path class="cls-4" d="M91.82,40.34c-9.19-3.1-18.39-1-27.69.32-8.41,1.21-16.9,2.2-25.38,1.07-3.08-.41-6.34-.8-9.55-1.43A51.89,51.89,0,0,0,41.26,55.5a22.31,22.31,0,0,0,14.51,5.23H75.48A22.31,22.31,0,0,0,90,55.5a50.81,50.81,0,0,0,9.94-11.57A66,66,0,0,0,91.82,40.34Z"/><path class="cls-5" d="M73.38,50.94c-7.11-.26-14-1.68-21.1-2.48-5.55-.64-11.84-1.19-17.28.62a49.73,49.73,0,0,0,6.26,6.42,22.31,22.31,0,0,0,14.51,5.23H75.48A22.31,22.31,0,0,0,90,55.5a49.24,49.24,0,0,0,6-6.16A94.93,94.93,0,0,1,73.38,50.94Z"/><path class="cls-2" d="M114.73,84.22H16.52V86a4.41,4.41,0,0,0,4.41,4.41h89.39A4.41,4.41,0,0,0,114.73,86Z"/><path class="cls-1" d="M5.79,86.26a4.26,4.26,0,0,1,0-8.51H125.46a4.26,4.26,0,0,1,0,8.51Z"/><path class="cls-2" d="M125.46,79.29a2.72,2.72,0,0,1,0,5.43H5.79a2.72,2.72,0,0,1,0-5.43H125.46m0-3.08H5.79a5.79,5.79,0,0,0,0,11.58H125.46a5.79,5.79,0,0,0,0-11.58Z"/></g></g></svg>